<svg width="24" height="24" viewBox="0 0 24 24" fill="none" xmlns="http://www.w3.org/2000/svg">
<path opacity="0.4" d="M16.192 1.99609H7.81196C4.17196 1.99609 2.00195 4.1661 2.00195 7.8061V16.1761C2.00195 19.8261 4.17196 21.9961 7.81196 21.9961H16.182C19.822 21.9961 21.9919 19.8261 21.9919 16.1861V7.8061C22.002 4.1661 19.8319 1.99609 16.192 1.99609Z" fill="#474856" fill-opacity="0.75"/>
<path opacity="0.97" d="M11.9975 10.3075C12.721 10.3075 13.3075 9.721 13.3075 8.9975C13.3075 8.27401 12.721 7.6875 11.9975 7.6875C11.274 7.6875 10.6875 8.27401 10.6875 8.9975C10.6875 9.721 11.274 10.3075 11.9975 10.3075Z" fill="#474856" fill-opacity="0.75"/>
<path opacity="0.97" d="M8.30804 13.6875C7.58804 13.6875 6.99805 14.2775 6.99805 14.9975C6.99805 15.7175 7.58804 16.3076 8.30804 16.3076C9.02804 16.3076 9.61804 15.7175 9.61804 14.9975C9.61804 14.2775 9.02804 13.6875 8.30804 13.6875Z" fill="#474856" fill-opacity="0.75"/>
<path opacity="0.97" d="M15.6908 13.6875C14.9708 13.6875 14.3809 14.2775 14.3809 14.9975C14.3809 15.7175 14.9708 16.3076 15.6908 16.3076C16.4108 16.3076 17.0008 15.7175 17.0008 14.9975C17.0008 14.2775 16.4108 13.6875 15.6908 13.6875Z" fill="#474856" fill-opacity="0.75"/>
</svg>
