<svg width="24" height="24" viewBox="0 0 24 24" fill="none" xmlns="http://www.w3.org/2000/svg">
<g clip-path="url(#clip0_13017_2611)">
<g clip-path="url(#clip1_13017_2611)">
<path d="M16.5983 3.55609V1.99609C16.5983 1.5861 16.2745 1.24609 15.884 1.24609C15.4935 1.24609 15.1697 1.5861 15.1697 1.99609V3.49609H8.97925V1.99609C8.97925 1.5861 8.65544 1.24609 8.26497 1.24609C7.87449 1.24609 7.55068 1.5861 7.55068 1.99609V3.55609C4.97925 3.80609 3.73163 5.41609 3.54115 7.8061C3.52211 8.09609 3.75068 8.33609 4.01734 8.33609H20.1317C20.4078 8.33609 20.6364 8.08609 20.6078 7.8061C20.4174 5.41609 19.1697 3.80609 16.5983 3.55609Z" fill="#333548" fill-opacity="0.75"/>
<path opacity="0.4" d="M19.6953 9.84375C20.2192 9.84375 20.6478 10.2937 20.6478 10.8438V17.0038C20.6478 20.0038 19.2192 22.0038 15.8859 22.0038H8.26679C4.93345 22.0038 3.50488 20.0038 3.50488 17.0038V10.8438C3.50488 10.2937 3.93345 9.84375 4.45726 9.84375H19.6953Z" fill="#333548" fill-opacity="0.75"/>
<path d="M8.74242 15.0028C8.4948 15.0028 8.24718 14.8928 8.06623 14.7128C7.8948 14.5228 7.79004 14.2628 7.79004 14.0029C7.79004 13.7428 7.8948 13.4828 8.06623 13.2928C8.3329 13.0129 8.75195 12.9227 9.10432 13.0828C9.22813 13.1327 9.3329 13.2028 9.41861 13.2928C9.59004 13.4828 9.69481 13.7428 9.69481 14.0029C9.69481 14.2628 9.59004 14.5228 9.41861 14.7128C9.23766 14.8928 8.99004 15.0028 8.74242 15.0028Z" fill="#333548" fill-opacity="0.75"/>
<path d="M12.0773 15.0028C11.8298 15.0028 11.5821 14.8928 11.4012 14.7128C11.2298 14.5228 11.125 14.2628 11.125 14.0029C11.125 13.7428 11.2298 13.4828 11.4012 13.2928C11.4869 13.2028 11.5916 13.1327 11.7155 13.0828C12.0678 12.9227 12.4869 13.0129 12.7536 13.2928C12.925 13.4828 13.0298 13.7428 13.0298 14.0029C13.0298 14.2628 12.925 14.5228 12.7536 14.7128C12.7059 14.7527 12.6584 14.7928 12.6107 14.8328C12.5536 14.8727 12.4964 14.9029 12.4393 14.9228C12.3821 14.9528 12.325 14.9728 12.2678 14.9828C12.2012 14.9929 12.1441 15.0028 12.0773 15.0028Z" fill="#333548" fill-opacity="0.75"/>
<path d="M15.4123 15.0039C15.1648 15.0039 14.9171 14.8939 14.7362 14.7139C14.5648 14.5239 14.46 14.2639 14.46 14.0039C14.46 13.7439 14.5648 13.484 14.7362 13.2939C14.8314 13.2039 14.9266 13.1339 15.0505 13.0839C15.2219 13.0039 15.4123 12.9839 15.6028 13.0239C15.66 13.0339 15.7171 13.0539 15.7742 13.0839C15.8314 13.1039 15.8885 13.1339 15.9457 13.1739C15.9933 13.214 16.0409 13.2539 16.0885 13.2939C16.26 13.484 16.3648 13.7439 16.3648 14.0039C16.3648 14.2639 16.26 14.5239 16.0885 14.7139C16.0409 14.7539 15.9933 14.7939 15.9457 14.8339C15.8885 14.8739 15.8314 14.9039 15.7742 14.924C15.7171 14.954 15.66 14.9739 15.6028 14.984C15.5362 14.9939 15.4694 15.0039 15.4123 15.0039Z" fill="#333548" fill-opacity="0.75"/>
<path d="M8.74242 18.5C8.61861 18.5 8.49481 18.47 8.38052 18.42C8.2567 18.3701 8.16147 18.3 8.06623 18.21C7.8948 18.02 7.79004 17.76 7.79004 17.5C7.79004 17.24 7.8948 16.98 8.06623 16.79C8.16147 16.7 8.2567 16.63 8.38052 16.58C8.55195 16.5 8.74242 16.48 8.9329 16.52C8.99004 16.53 9.04718 16.55 9.10432 16.58C9.16147 16.6 9.21861 16.6301 9.27575 16.67C9.32338 16.71 9.37099 16.7501 9.41861 16.79C9.59004 16.98 9.69481 17.24 9.69481 17.5C9.69481 17.76 9.59004 18.02 9.41861 18.21C9.37099 18.25 9.32338 18.3 9.27575 18.33C9.21861 18.37 9.16147 18.4001 9.10432 18.42C9.04718 18.45 8.99004 18.47 8.9329 18.48C8.86623 18.4901 8.80909 18.5 8.74242 18.5Z" fill="#333548" fill-opacity="0.75"/>
<path d="M12.0773 18.4973C11.8298 18.4973 11.5821 18.3873 11.4012 18.2073C11.2298 18.0172 11.125 17.7573 11.125 17.4972C11.125 17.2373 11.2298 16.9773 11.4012 16.7873C11.7536 16.4172 12.4012 16.4172 12.7536 16.7873C12.925 16.9773 13.0298 17.2373 13.0298 17.4972C13.0298 17.7573 12.925 18.0172 12.7536 18.2073C12.5726 18.3873 12.325 18.4973 12.0773 18.4973Z" fill="#333548" fill-opacity="0.75"/>
<path d="M15.4123 18.4973C15.1648 18.4973 14.9171 18.3873 14.7362 18.2073C14.5648 18.0172 14.46 17.7573 14.46 17.4972C14.46 17.2373 14.5648 16.9773 14.7362 16.7873C15.0885 16.4172 15.7362 16.4172 16.0885 16.7873C16.26 16.9773 16.3648 17.2373 16.3648 17.4972C16.3648 17.7573 16.26 18.0172 16.0885 18.2073C15.9076 18.3873 15.66 18.4973 15.4123 18.4973Z" fill="#333548" fill-opacity="0.75"/>
</g>
</g>
<defs>
<clipPath id="clip0_13017_2611">
<rect width="24" height="24" fill="white"/>
</clipPath>
<clipPath id="clip1_13017_2611">
<rect width="24" height="24" fill="white"/>
</clipPath>
</defs>
</svg>
