<svg width="24" height="24" viewBox="0 0 24 24" fill="none" xmlns="http://www.w3.org/2000/svg">
<path d="M21.4004 11.3004V4.50039C21.4004 3.00039 20.7604 2.40039 19.1704 2.40039H15.1303C13.5403 2.40039 12.9004 3.00039 12.9004 4.50039V11.3004C12.9004 12.8004 13.5403 13.4004 15.1303 13.4004H19.1704C20.7604 13.4004 21.4004 12.8004 21.4004 11.3004Z" fill="#333548" fill-opacity="0.75"/>
<path d="M10.9004 13.5004V20.3004C10.9004 21.8004 10.2604 22.4004 8.67039 22.4004H4.6304C3.0404 22.4004 2.40039 21.8004 2.40039 20.3004V13.5004C2.40039 12.0004 3.0404 11.4004 4.6304 11.4004H8.67039C10.2604 11.4004 10.9004 12.0004 10.9004 13.5004Z" fill="#333548" fill-opacity="0.75"/>
<path opacity="0.4" d="M21.4004 20.3023V17.5023C21.4004 16.0023 20.7604 15.4023 19.1704 15.4023H15.1303C13.5403 15.4023 12.9004 16.0023 12.9004 17.5023V20.3023C12.9004 21.8023 13.5403 22.4023 15.1303 22.4023H19.1704C20.7604 22.4023 21.4004 21.8023 21.4004 20.3023Z" fill="#333548" fill-opacity="0.75"/>
<path opacity="0.4" d="M10.9004 7.3004V4.50039C10.9004 3.00039 10.2604 2.40039 8.67039 2.40039H4.6304C3.0404 2.40039 2.40039 3.00039 2.40039 4.50039V7.3004C2.40039 8.8004 3.0404 9.4004 4.6304 9.4004H8.67039C10.2604 9.4004 10.9004 8.8004 10.9004 7.3004Z" fill="#333548" fill-opacity="0.75"/>
</svg>
