<svg width="24" height="24" viewBox="0 0 24 24" fill="none" xmlns="http://www.w3.org/2000/svg">
<path d="M11.5665 2C8.94641 2 6.81641 4.13 6.81641 6.75C6.81641 9.32 8.82641 11.4 11.4465 11.49C11.5265 11.48 11.6065 11.48 11.6665 11.49C11.6865 11.49 11.6965 11.49 11.7165 11.49C11.7265 11.49 11.7265 11.49 11.7365 11.49C14.2965 11.4 16.3065 9.32 16.3165 6.75C16.3165 4.13 14.1865 2 11.5665 2Z" fill="#333548" fill-opacity="0.75"/>
<path opacity="0.4" d="M16.6473 14.1528C13.8573 12.2928 9.30733 12.2928 6.49734 14.1528C5.22734 15.0028 4.52734 16.1528 4.52734 17.3828C4.52734 18.6128 5.22734 19.7528 6.48734 20.5928C7.88734 21.5328 9.72733 22.0028 11.5673 22.0028C13.4073 22.0028 15.2473 21.5328 16.6473 20.5928C17.9073 19.7428 18.6073 18.6028 18.6073 17.3628C18.5973 16.1328 17.9073 14.9928 16.6473 14.1528Z" fill="#333548" fill-opacity="0.75"/>
<path d="M13.5665 16.6328H12.3165V15.3828C12.3165 14.9728 11.9765 14.6328 11.5665 14.6328C11.1565 14.6328 10.8165 14.9728 10.8165 15.3828V16.6328H9.56646C9.15646 16.6328 8.81641 16.9728 8.81641 17.3828C8.81641 17.7928 9.15646 18.1328 9.56646 18.1328H10.8165V19.3828C10.8165 19.7928 11.1565 20.1328 11.5665 20.1328C11.9765 20.1328 12.3165 19.7928 12.3165 19.3828V18.1328H13.5665C13.9765 18.1328 14.3165 17.7928 14.3165 17.3828C14.3165 16.9728 13.9765 16.6328 13.5665 16.6328Z" fill="#333548" fill-opacity="0.75"/>
</svg>
