<svg width="20" height="21" viewBox="0 0 20 21" fill="none" xmlns="http://www.w3.org/2000/svg">
<path d="M13.8321 3.46406V2.16406C13.8321 1.8224 13.5623 1.53906 13.2368 1.53906C12.9114 1.53906 12.6416 1.8224 12.6416 2.16406V3.41406H7.48287V2.16406C7.48287 1.8224 7.21303 1.53906 6.88763 1.53906C6.56223 1.53906 6.2924 1.8224 6.2924 2.16406V3.46406C4.14954 3.67239 3.10985 5.01406 2.95112 7.00573C2.93525 7.24739 3.12573 7.44739 3.34795 7.44739H16.7766C17.0067 7.44739 17.1971 7.23906 17.1733 7.00573C17.0147 5.01406 15.9749 3.67239 13.8321 3.46406Z" fill="#3A643B"/>
<path opacity="0.4" d="M16.4129 8.70312C16.8495 8.70312 17.2067 9.07812 17.2067 9.53646V14.6698C17.2067 17.1698 16.0162 18.8365 13.2384 18.8365H6.88916C4.11137 18.8365 2.9209 17.1698 2.9209 14.6698V9.53646C2.9209 9.07812 3.27804 8.70312 3.71455 8.70312H16.4129Z" fill="#3A643B"/>
<path d="M7.28584 13.0017C7.07949 13.0017 6.87314 12.91 6.72235 12.76C6.57949 12.6017 6.49219 12.385 6.49219 12.1684C6.49219 11.9517 6.57949 11.735 6.72235 11.5767C6.94457 11.3434 7.29378 11.2683 7.58743 11.4017C7.6906 11.4433 7.7779 11.5017 7.84933 11.5767C7.99219 11.735 8.07949 11.9517 8.07949 12.1684C8.07949 12.385 7.99219 12.6017 7.84933 12.76C7.69854 12.91 7.49219 13.0017 7.28584 13.0017Z" fill="#3A643B"/>
<path d="M10.0641 13.0017C9.85783 13.0017 9.65145 12.91 9.50067 12.76C9.35781 12.6017 9.27051 12.385 9.27051 12.1684C9.27051 11.9517 9.35781 11.735 9.50067 11.5767C9.57212 11.5017 9.65936 11.4433 9.76259 11.4017C10.0562 11.2683 10.4055 11.3434 10.6276 11.5767C10.7705 11.735 10.8578 11.9517 10.8578 12.1684C10.8578 12.385 10.7705 12.6017 10.6276 12.76C10.5879 12.7933 10.5483 12.8267 10.5086 12.86C10.461 12.8933 10.4134 12.9184 10.3657 12.935C10.3181 12.96 10.2705 12.9767 10.2229 12.985C10.1674 12.9934 10.1197 13.0017 10.0641 13.0017Z" fill="#3A643B"/>
<path d="M12.8434 13.0026C12.6371 13.0026 12.4308 12.9109 12.28 12.7609C12.1371 12.6026 12.0498 12.3859 12.0498 12.1693C12.0498 11.9526 12.1371 11.736 12.28 11.5776C12.3593 11.5026 12.4387 11.4443 12.5419 11.4026C12.6848 11.3359 12.8434 11.3193 13.0022 11.3526C13.0498 11.3609 13.0974 11.3776 13.145 11.4026C13.1927 11.4193 13.2403 11.4443 13.2879 11.4776C13.3276 11.511 13.3672 11.5443 13.4069 11.5776C13.5498 11.736 13.6371 11.9526 13.6371 12.1693C13.6371 12.3859 13.5498 12.6026 13.4069 12.7609C13.3672 12.7943 13.3276 12.8276 13.2879 12.8609C13.2403 12.8943 13.1927 12.9193 13.145 12.936C13.0974 12.961 13.0498 12.9776 13.0022 12.986C12.9467 12.9943 12.891 13.0026 12.8434 13.0026Z" fill="#3A643B"/>
<path d="M7.28584 15.9167C7.18266 15.9167 7.07949 15.8917 6.98425 15.85C6.88107 15.8084 6.80171 15.75 6.72235 15.675C6.57949 15.5167 6.49219 15.3 6.49219 15.0833C6.49219 14.8667 6.57949 14.65 6.72235 14.4917C6.80171 14.4167 6.88107 14.3583 6.98425 14.3167C7.12711 14.25 7.28584 14.2333 7.44457 14.2667C7.49219 14.275 7.53981 14.2917 7.58743 14.3167C7.63504 14.3333 7.68266 14.3584 7.73028 14.3917C7.76997 14.425 7.80964 14.4584 7.84933 14.4917C7.99219 14.65 8.07949 14.8667 8.07949 15.0833C8.07949 15.3 7.99219 15.5167 7.84933 15.675C7.80964 15.7083 7.76997 15.75 7.73028 15.775C7.68266 15.8083 7.63504 15.8334 7.58743 15.85C7.53981 15.875 7.49219 15.8917 7.44457 15.9C7.38902 15.9084 7.3414 15.9167 7.28584 15.9167Z" fill="#3A643B"/>
<path d="M10.0641 15.9141C9.85783 15.9141 9.65145 15.8224 9.50067 15.6724C9.35781 15.514 9.27051 15.2974 9.27051 15.0807C9.27051 14.8641 9.35781 14.6474 9.50067 14.4891C9.79431 14.1807 10.334 14.1807 10.6276 14.4891C10.7705 14.6474 10.8578 14.8641 10.8578 15.0807C10.8578 15.2974 10.7705 15.514 10.6276 15.6724C10.4769 15.8224 10.2705 15.9141 10.0641 15.9141Z" fill="#3A643B"/>
<path d="M12.8434 15.9141C12.6371 15.9141 12.4308 15.8224 12.28 15.6724C12.1371 15.514 12.0498 15.2974 12.0498 15.0807C12.0498 14.8641 12.1371 14.6474 12.28 14.4891C12.5736 14.1807 13.1133 14.1807 13.4069 14.4891C13.5498 14.6474 13.6371 14.8641 13.6371 15.0807C13.6371 15.2974 13.5498 15.514 13.4069 15.6724C13.2562 15.8224 13.0498 15.9141 12.8434 15.9141Z" fill="#3A643B"/>
</svg>
