<svg width="25" height="26" viewBox="0 0 25 26" fill="none" xmlns="http://www.w3.org/2000/svg">
<g clip-path="url(#clip0_57_28521)">
<path opacity="0.4" d="M17.709 21.8568H7.29231C4.16731 21.8568 2.08398 20.2943 2.08398 16.6484V9.35677C2.08398 5.71094 4.16731 4.14844 7.29231 4.14844H17.709C20.834 4.14844 22.9173 5.71094 22.9173 9.35677V16.6484C22.9173 20.2943 20.834 21.8568 17.709 21.8568Z" fill="#28643B"/>
<path d="M12.5002 13.9045C11.6252 13.9045 10.7398 13.6337 10.0627 13.0816L6.80229 10.4774C6.46896 10.2066 6.40647 9.71701 6.6773 9.38368C6.94813 9.05034 7.43772 8.98785 7.77105 9.25868L11.0314 11.8628C11.8231 12.4983 13.1668 12.4983 13.9585 11.8628L17.2189 9.25868C17.5523 8.98785 18.0523 9.03993 18.3127 9.38368C18.5835 9.71701 18.5314 10.217 18.1877 10.4774L14.9273 13.0816C14.2606 13.6337 13.3752 13.9045 12.5002 13.9045Z" fill="#28643B"/>
</g>
<defs>
<clipPath id="clip0_57_28521">
<rect width="25" height="25" fill="white" transform="translate(0 0.5)"/>
</clipPath>
</defs>
</svg>
