<svg width="18" height="16" viewBox="0 0 18 16" fill="none" xmlns="http://www.w3.org/2000/svg">
<g clip-path="url(#clip0_57_28505)">
<g clip-path="url(#clip1_57_28505)">
<path fill-rule="evenodd" clip-rule="evenodd" d="M17.8614 1.37444C17.8614 1.05239 17.7334 0.743535 17.5057 0.515812C17.278 0.28809 16.9691 0.160156 16.6471 0.160156H2.07562C1.75357 0.160156 1.44471 0.28809 1.21699 0.515812C0.98926 0.743535 0.861328 1.05239 0.861328 1.37444C0.861328 1.69649 0.98926 2.00535 1.21699 2.23307C1.44471 2.46079 1.75357 2.58873 2.07562 2.58873H16.6471C16.9691 2.58873 17.278 2.46079 17.5057 2.23307C17.7334 2.00535 17.8614 1.69649 17.8614 1.37444Z" fill="#28643B"/>
<path fill-rule="evenodd" clip-rule="evenodd" d="M17.8614 7.44475C17.8614 7.1227 17.7334 6.81385 17.5057 6.58612C17.278 6.3584 16.9691 6.23047 16.6471 6.23047H2.07562C1.75357 6.23047 1.44471 6.3584 1.21699 6.58612C0.98926 6.81385 0.861328 7.1227 0.861328 7.44475C0.861328 7.7668 0.98926 8.07566 1.21699 8.30338C1.44471 8.53111 1.75357 8.65904 2.07562 8.65904H16.6471C16.9691 8.65904 17.278 8.53111 17.5057 8.30338C17.7334 8.07566 17.8614 7.7668 17.8614 7.44475Z" fill="#28643B"/>
<path fill-rule="evenodd" clip-rule="evenodd" d="M17.8608 13.5151C17.8608 13.1931 17.7328 12.8842 17.5051 12.6565C17.2774 12.4288 16.9685 12.3008 16.6465 12.3008H9.36076C9.03871 12.3008 8.72986 12.4288 8.50213 12.6565C8.27441 12.8842 8.14648 13.1931 8.14648 13.5151C8.14648 13.8372 8.27441 14.146 8.50213 14.3738C8.72986 14.6015 9.03871 14.7294 9.36076 14.7294H16.6465C16.9685 14.7294 17.2774 14.6015 17.5051 14.3738C17.7328 14.146 17.8608 13.8372 17.8608 13.5151Z" fill="#28643B"/>
</g>
</g>
<defs>
<clipPath id="clip0_57_28505">
<rect width="18" height="15" fill="white" transform="translate(0 0.0195312)"/>
</clipPath>
<clipPath id="clip1_57_28505">
<rect width="18" height="15" fill="white" transform="translate(0 0.0195312)"/>
</clipPath>
</defs>
</svg>
