<svg width="46" height="46" viewBox="0 0 46 46" fill="none" xmlns="http://www.w3.org/2000/svg">
<rect x="0.75" y="0.75" width="44.1646" height="44.1646" rx="15.25" fill="#FDF8E5"/>
<rect x="0.75" y="0.75" width="44.1646" height="44.1646" rx="15.25" stroke="#E3E3E3" stroke-width="1.5"/>
<path d="M20.2206 13.4194C23.4349 12.6475 26.7767 13.1944 29.6057 14.9618C31.4054 16.0867 32.8846 17.5967 33.9123 19.4612L32.3052 18.7863C31.9833 18.6583 31.598 18.7863 31.47 19.1393C31.342 19.4612 31.47 19.8465 31.823 19.9745L34.7798 21.2274C34.8768 21.2597 34.9402 21.292 35.0371 21.292C35.2944 21.292 35.5194 21.1317 35.6151 20.9067L36.8679 17.9822C36.9959 17.6603 36.8679 17.275 36.546 17.147C36.2241 17.0189 35.8388 17.147 35.7108 17.5L35.1005 18.9467C33.9757 16.8897 32.3363 15.1871 30.3115 13.9328C27.1943 12.0038 23.5305 11.3935 19.9633 12.2611C19.6103 12.358 19.4164 12.6787 19.4811 13.0329C19.5146 13.2915 19.8676 13.5163 20.2206 13.4194Z" fill="#3A643B"/>
<path d="M26.8102 34.6339C23.5959 35.4057 20.254 34.8588 17.4251 33.0914C15.6254 31.9666 14.1462 30.4565 13.1185 28.592L14.6932 29.2669C15.0151 29.3949 15.4005 29.2669 15.5285 28.9139C15.6565 28.592 15.5285 28.2067 15.1755 28.0787L12.2186 26.8258C11.8967 26.6978 11.5114 26.8258 11.3834 27.1788L10.1305 30.1357C10.0025 30.4576 10.1305 30.8429 10.4835 30.9709C10.5805 31.0032 10.6439 31.0356 10.7408 31.0356C10.9981 31.0356 11.223 30.8752 11.3187 30.6503L11.929 29.1725C13.0539 31.2295 14.6932 32.9321 16.718 34.1864C18.903 35.5362 21.3777 36.2434 23.8844 36.2434C24.9446 36.2434 26.006 36.1154 27.0662 35.8581C27.4192 35.7611 27.6131 35.4405 27.5484 35.0862C27.5174 34.7618 27.1644 34.5369 26.8102 34.6339Z" fill="#3A643B"/>
<path d="M13.7308 25.8585C13.7954 25.8585 13.8911 25.8585 13.988 25.8262L19.1623 23.3192C19.3873 23.2223 19.5476 22.9663 19.5476 22.709V14.7061C19.5476 14.6414 19.5476 14.578 19.483 14.5457L19.2568 14.3195L19.2592 14.2884L14.0204 11.8461C13.86 11.7492 13.6351 11.7492 13.4735 11.8461L8.33167 14.3207C8.29936 14.3207 8.26704 14.3531 8.23473 14.3854C8.20241 14.3854 8.20241 14.4177 8.20241 14.45C8.1701 14.4823 8.13778 14.4823 8.13778 14.5146L8.07315 14.5793L7.97745 14.578V14.6103H7.91406V22.7736C7.91406 23.0309 8.04208 23.2558 8.29935 23.3839L13.4736 25.7938C13.5706 25.8585 13.6661 25.8585 13.7308 25.8585ZM18.2623 22.3238L14.3732 24.1558V17.7922L18.2623 15.9278V22.3238ZM13.7308 13.1637L17.4271 14.9311L16.3669 15.4133L12.7339 13.6459L13.7308 13.1637ZM11.2562 14.3854L14.9203 16.1528L13.7632 16.6997L10.0669 14.9634L11.2562 14.3854ZM13.0882 24.1883L9.19905 22.3239V15.9603L13.0882 17.8246V24.1883Z" fill="#3A643B"/>
<path d="M13.5 18L9 16V22.5L13 24L13.5 18Z" fill="#AFBDA1"/>
<path d="M33.3967 23.1914C30.2472 23.1914 27.6758 25.763 27.6758 28.9123C27.6758 32.0618 30.2473 34.6332 33.3967 34.6332C36.5461 34.6332 39.1176 32.0617 39.1176 28.9123C39.1176 25.7628 36.5473 23.1914 33.3967 23.1914ZM33.7509 31.7079V32.6723H32.9791V31.7725C32.4011 31.7725 31.8219 31.5798 31.469 31.3549L31.6939 30.4873C32.0792 30.7123 32.5938 30.9049 33.1407 30.9049C33.7186 30.9049 34.1375 30.6153 34.1375 30.1654C34.1375 29.7478 33.8156 29.4582 33.1096 29.2332C32.1128 28.8802 31.5025 28.4303 31.5025 27.5615C31.5025 26.7586 32.0494 26.1471 33.0126 25.9868V25.0223H33.7845V25.8899C34.3624 25.9222 34.7813 26.0502 35.0696 26.2118L34.8124 27.0793C34.5874 26.9824 34.1698 26.7574 33.5595 26.7574C32.9169 26.7574 32.6597 27.0793 32.6597 27.4C32.6597 27.7853 32.9816 27.9779 33.7845 28.2998C34.8447 28.6851 35.2946 29.1997 35.2946 30.0349C35.3257 30.8403 34.7788 31.5475 33.7509 31.7079Z" fill="#3A643B"/>
<path d="M18.5 16L14.5 17.5V24L18.5 22.5V16Z" fill="#AFBDA1"/>
<path d="M11 14.5L10 15L13.5 16.5L15 16L11 14.5Z" fill="#AFBDA1"/>
<path d="M13.5 13L12 13.5L16.5 15.5L17.5 15L13.5 13Z" fill="#AFBDA1"/>
<path d="M33.5 25H33V26L32 26.5L31.5 27V28L32 28.5L33 29L34 29.5V30.5L33.5 31L31.5 30.5V31.5L33.5 32.5L34 31.5H34.5L35.5 30.5L35 29L32.5 27.5L33 27H35V26H34L33.5 25Z" fill="#AFBDA1"/>
</svg>
