<svg width="26" height="26" viewBox="0 0 26 26" fill="none" xmlns="http://www.w3.org/2000/svg">
<g clip-path="url(#clip0_57_28539)">
<path opacity="0.4" d="M2.52344 13.9129V12.0796C2.52344 10.9963 3.40886 10.1004 4.50261 10.1004C6.38803 10.1004 7.15886 8.76708 6.21094 7.13167C5.66928 6.19417 5.99219 4.97542 6.94011 4.43375L8.74219 3.4025C9.56511 2.91292 10.6276 3.20458 11.1172 4.0275L11.2318 4.22542C12.1693 5.86083 13.711 5.86083 14.6589 4.22542L14.7735 4.0275C15.263 3.20458 16.3255 2.91292 17.1485 3.4025L18.9505 4.43375C19.8985 4.97542 20.2214 6.19417 19.6797 7.13167C18.7318 8.76708 19.5026 10.1004 21.388 10.1004C22.4714 10.1004 23.3672 10.9858 23.3672 12.0796V13.9129C23.3672 14.9963 22.4818 15.8921 21.388 15.8921C19.5026 15.8921 18.7318 17.2254 19.6797 18.8608C20.2214 19.8088 19.8985 21.0171 18.9505 21.5588L17.1485 22.59C16.3255 23.0796 15.263 22.7879 14.7735 21.965L14.6589 21.7671C13.7214 20.1317 12.1797 20.1317 11.2318 21.7671L11.1172 21.965C10.6276 22.7879 9.56511 23.0796 8.74219 22.59L6.94011 21.5588C5.99219 21.0171 5.66928 19.7983 6.21094 18.8608C7.15886 17.2254 6.38803 15.8921 4.50261 15.8921C3.40886 15.8921 2.52344 14.9963 2.52344 13.9129Z" fill="#28643B"/>
<path d="M12.9401 16.388C14.8098 16.388 16.3255 14.8723 16.3255 13.0026C16.3255 11.1329 14.8098 9.61719 12.9401 9.61719C11.0704 9.61719 9.55469 11.1329 9.55469 13.0026C9.55469 14.8723 11.0704 16.388 12.9401 16.388Z" fill="#28643B"/>
</g>
<defs>
<clipPath id="clip0_57_28539">
<rect width="25" height="26" fill="white" transform="translate(0.439453)"/>
</clipPath>
</defs>
</svg>
