<svg width="24" height="24" viewBox="0 0 24 24" fill="none" xmlns="http://www.w3.org/2000/svg">
<g clip-path="url(#clip0_57_28527)">
<g clip-path="url(#clip1_57_28527)">
<path opacity="0.4" d="M20.3992 16.3269C20.1192 17.0769 19.5292 17.6469 18.7592 17.9069C17.6792 18.2669 16.5692 18.5369 15.4492 18.7269C15.3392 18.7469 15.2292 18.7669 15.1192 18.7769C14.9392 18.8069 14.7592 18.8269 14.5792 18.8469C14.3592 18.8769 14.1292 18.8969 13.8992 18.9169C13.2692 18.9669 12.6492 18.9969 12.0192 18.9969C11.3792 18.9969 10.7392 18.9669 10.1092 18.9069C9.83923 18.8869 9.57923 18.8569 9.31923 18.8169C9.16923 18.7969 9.01923 18.7769 8.87923 18.7569C8.76923 18.7369 8.65923 18.7269 8.54923 18.7069C7.43923 18.5269 6.33923 18.2569 5.26923 17.8969C4.46923 17.6269 3.85923 17.0569 3.58923 16.3269C3.31923 15.6069 3.41923 14.7669 3.84923 14.0469L4.97923 12.1669C5.21923 11.7569 5.43923 10.9669 5.43923 10.4869V8.62687C5.43923 4.99687 8.38923 2.04688 12.0192 2.04688C15.6392 2.04688 18.5892 4.99687 18.5892 8.62687V10.4869C18.5892 10.9669 18.8092 11.7569 19.0592 12.1669L20.1892 14.0469C20.5992 14.7469 20.6792 15.5669 20.3992 16.3269Z" fill="#28643B"/>
<path d="M12.0002 10.7606C11.5802 10.7606 11.2402 10.4206 11.2402 10.0006V6.90063C11.2402 6.48063 11.5802 6.14062 12.0002 6.14062C12.4202 6.14062 12.7602 6.48063 12.7602 6.90063V10.0006C12.7502 10.4206 12.4102 10.7606 12.0002 10.7606Z" fill="#28643B"/>
<path d="M14.8297 20.01C14.4097 21.17 13.2997 22 11.9997 22C11.2097 22 10.4297 21.68 9.87969 21.11C9.55969 20.81 9.31969 20.41 9.17969 20C9.30969 20.02 9.43969 20.03 9.57969 20.05C9.80969 20.08 10.0497 20.11 10.2897 20.13C10.8597 20.18 11.4397 20.21 12.0197 20.21C12.5897 20.21 13.1597 20.18 13.7197 20.13C13.9297 20.11 14.1397 20.1 14.3397 20.07C14.4997 20.05 14.6597 20.03 14.8297 20.01Z" fill="#28643B"/>
</g>
</g>
<defs>
<clipPath id="clip0_57_28527">
<rect width="24" height="24" fill="white"/>
</clipPath>
<clipPath id="clip1_57_28527">
<rect width="24" height="24" fill="white"/>
</clipPath>
</defs>
</svg>
