<svg width="46" height="46" viewBox="0 0 46 46" fill="none" xmlns="http://www.w3.org/2000/svg">
<rect x="0.75" y="0.75" width="44.1643" height="44.1643" rx="15.25" fill="#FDF8E5"/>
<rect x="0.75" y="0.75" width="44.1643" height="44.1643" rx="15.25" stroke="#E3E3E3" stroke-width="1.5"/>
<g clip-path="url(#clip0_57_28548)">
<g clip-path="url(#clip1_57_28548)">
<path d="M27.4789 14.4032V12.8568C27.4789 12.4503 27.1419 12.1133 26.7355 12.1133C26.329 12.1133 25.992 12.4503 25.992 12.8568V14.3438H19.5483V12.8568C19.5483 12.4503 19.2113 12.1133 18.8048 12.1133C18.3984 12.1133 18.0613 12.4503 18.0613 12.8568V14.4032C15.3848 14.6511 14.0861 16.2471 13.8879 18.6164C13.868 18.9038 14.106 19.1418 14.3835 19.1418H31.1568C31.4442 19.1418 31.6822 18.8939 31.6524 18.6164C31.4541 16.2471 30.1555 14.6511 27.4789 14.4032Z" fill="#3A643B"/>
<path opacity="0.4" d="M30.7001 20.6328C31.2454 20.6328 31.6915 21.0789 31.6915 21.6242V27.7307C31.6915 30.7047 30.2045 32.6873 26.7349 32.6873H18.8043C15.3346 32.6873 13.8477 30.7047 13.8477 27.7307V21.6242C13.8477 21.0789 14.2938 20.6328 14.839 20.6328H30.7001Z" fill="#3A643B"/>
<path d="M19.2999 25.7433C19.0422 25.7433 18.7844 25.6342 18.5961 25.4558C18.4176 25.2674 18.3086 25.0097 18.3086 24.7519C18.3086 24.4942 18.4176 24.2365 18.5961 24.0481C18.8736 23.7705 19.3098 23.6813 19.6766 23.8399C19.8055 23.8895 19.9145 23.9589 20.0038 24.0481C20.1822 24.2365 20.2912 24.4942 20.2912 24.7519C20.2912 25.0097 20.1822 25.2674 20.0038 25.4558C19.8154 25.6342 19.5577 25.7433 19.2999 25.7433Z" fill="#3A643B"/>
<path d="M22.7687 25.7433C22.5109 25.7433 22.2532 25.6342 22.0648 25.4558C21.8864 25.2674 21.7773 25.0097 21.7773 24.7519C21.7773 24.4942 21.8864 24.2365 22.0648 24.0481C22.154 23.9589 22.2631 23.8895 22.392 23.8399C22.7588 23.6813 23.1949 23.7705 23.4725 24.0481C23.6509 24.2365 23.76 24.4942 23.76 24.7519C23.76 25.0097 23.6509 25.2674 23.4725 25.4558C23.4229 25.4954 23.3734 25.5351 23.3238 25.5747C23.2643 25.6144 23.2048 25.6441 23.1454 25.664C23.0859 25.6937 23.0264 25.7135 22.9669 25.7234C22.8975 25.7333 22.8381 25.7433 22.7687 25.7433Z" fill="#3A643B"/>
<path d="M26.2394 25.7444C25.9816 25.7444 25.7239 25.6353 25.5355 25.4569C25.3571 25.2685 25.248 25.0108 25.248 24.753C25.248 24.4953 25.3571 24.2376 25.5355 24.0492C25.6347 23.96 25.7338 23.8906 25.8627 23.841C26.0411 23.7617 26.2394 23.7419 26.4376 23.7815C26.4971 23.7915 26.5566 23.8113 26.6161 23.841C26.6756 23.8609 26.735 23.8906 26.7945 23.9302C26.8441 23.9699 26.8936 24.0095 26.9432 24.0492C27.1216 24.2376 27.2307 24.4953 27.2307 24.753C27.2307 25.0108 27.1216 25.2685 26.9432 25.4569C26.8936 25.4965 26.8441 25.5362 26.7945 25.5758C26.735 25.6155 26.6756 25.6452 26.6161 25.6651C26.5566 25.6948 26.4971 25.7146 26.4376 25.7245C26.3682 25.7345 26.2988 25.7444 26.2394 25.7444Z" fill="#3A643B"/>
<path d="M19.2999 29.217C19.171 29.217 19.0422 29.1873 18.9232 29.1377C18.7943 29.0881 18.6952 29.0188 18.5961 28.9295C18.4176 28.7412 18.3086 28.4834 18.3086 28.2257C18.3086 27.968 18.4176 27.7102 18.5961 27.5219C18.6952 27.4326 18.7943 27.3632 18.9232 27.3137C19.1017 27.2344 19.2999 27.2145 19.4982 27.2542C19.5577 27.2641 19.6171 27.2839 19.6766 27.3137C19.7361 27.3335 19.7956 27.3632 19.8551 27.4029C19.9046 27.4426 19.9542 27.4822 20.0038 27.5219C20.1822 27.7102 20.2912 27.968 20.2912 28.2257C20.2912 28.4834 20.1822 28.7412 20.0038 28.9295C19.9542 28.9692 19.9046 29.0188 19.8551 29.0485C19.7956 29.0881 19.7361 29.1179 19.6766 29.1377C19.6171 29.1675 19.5577 29.1873 19.4982 29.1972C19.4288 29.2071 19.3693 29.217 19.2999 29.217Z" fill="#3A643B"/>
<path d="M22.7687 29.2163C22.5109 29.2163 22.2532 29.1073 22.0648 28.9289C21.8864 28.7405 21.7773 28.4828 21.7773 28.225C21.7773 27.9673 21.8864 27.7095 22.0648 27.5212C22.4316 27.1544 23.1057 27.1544 23.4725 27.5212C23.6509 27.7095 23.76 27.9673 23.76 28.225C23.76 28.4828 23.6509 28.7405 23.4725 28.9289C23.2842 29.1073 23.0264 29.2163 22.7687 29.2163Z" fill="#3A643B"/>
<path d="M26.2374 29.2163C25.9797 29.2163 25.7219 29.1073 25.5336 28.9289C25.3551 28.7405 25.2461 28.4828 25.2461 28.225C25.2461 27.9673 25.3551 27.7095 25.5336 27.5212C25.9004 27.1544 26.5745 27.1544 26.9413 27.5212C27.1197 27.7095 27.2287 27.9673 27.2287 28.225C27.2287 28.4828 27.1197 28.7405 26.9413 28.9289C26.7529 29.1073 26.4952 29.2163 26.2374 29.2163Z" fill="#3A643B"/>
</g>
</g>
<defs>
<clipPath id="clip0_57_28548">
<rect width="23.7917" height="23.7917" fill="white" transform="translate(11.873 11.875)"/>
</clipPath>
<clipPath id="clip1_57_28548">
<rect width="23.7917" height="23.7917" fill="white" transform="translate(10.873 10.875)"/>
</clipPath>
</defs>
</svg>
