<svg width="46" height="46" viewBox="0 0 46 46" fill="none" xmlns="http://www.w3.org/2000/svg">
<rect x="0.75" y="0.75" width="44.1643" height="44.1643" rx="15.25" fill="#FDF8E5"/>
<rect x="0.75" y="0.75" width="44.1643" height="44.1643" rx="15.25" stroke="#E3E3E3" stroke-width="1.5"/>
<g clip-path="url(#clip0_57_28594)">
<g clip-path="url(#clip1_57_28594)">
<path d="M22.8087 12.1367C20.0119 12.1367 17.7383 14.4104 17.7383 17.2071C17.7383 19.9504 19.8838 22.1707 22.6806 22.2668C22.7659 22.2561 22.8514 22.2561 22.9154 22.2668C22.9368 22.2668 22.9475 22.2668 22.9688 22.2668C22.9795 22.2668 22.9795 22.2668 22.9901 22.2668C25.7228 22.1707 27.8684 19.9504 27.8791 17.2071C27.8791 14.4104 25.6054 12.1367 22.8087 12.1367Z" fill="#3A643B"/>
<path opacity="0.4" d="M28.2305 25.1063C25.2523 23.1208 20.3953 23.1208 17.3958 25.1063C16.0402 26.0136 15.293 27.2411 15.293 28.5541C15.293 29.8671 16.0402 31.084 17.3852 31.9806C18.8796 32.9841 20.8437 33.4857 22.8078 33.4857C24.7719 33.4857 26.736 32.9841 28.2305 31.9806C29.5755 31.0733 30.3226 29.8565 30.3226 28.5328C30.312 27.2198 29.5755 26.0029 28.2305 25.1063Z" fill="#3A643B"/>
<path d="M24.9453 27.7521H23.611V26.4178C23.611 25.9802 23.2481 25.6172 22.8105 25.6172C22.3728 25.6172 22.0099 25.9802 22.0099 26.4178V27.7521H20.6756C20.2379 27.7521 19.875 28.115 19.875 28.5526C19.875 28.9904 20.2379 29.3532 20.6756 29.3532H22.0099V30.6876C22.0099 31.1252 22.3728 31.4882 22.8105 31.4882C23.2481 31.4882 23.611 31.1252 23.611 30.6876V29.3532H24.9453C25.383 29.3532 25.7459 28.9904 25.7459 28.5526C25.7459 28.115 25.383 27.7521 24.9453 27.7521Z" fill="#3A643B"/>
</g>
</g>
<defs>
<clipPath id="clip0_57_28594">
<rect width="25.6188" height="25.6188" fill="white" transform="translate(10 10)"/>
</clipPath>
<clipPath id="clip1_57_28594">
<rect width="25.6188" height="25.6188" fill="white" transform="translate(10 10)"/>
</clipPath>
</defs>
</svg>
