<svg width="20" height="17" viewBox="0 0 20 17" fill="none" xmlns="http://www.w3.org/2000/svg">
<path d="M2.16536 15.3346C1.6612 15.3346 1.22975 15.1553 0.871031 14.7966C0.512309 14.4378 0.332642 14.0061 0.332031 13.5013V2.5013C0.332031 1.99714 0.511698 1.56569 0.871031 1.20697C1.23036 0.848246 1.66181 0.66858 2.16536 0.667969L3.65495 3.64714C3.76189 3.86102 3.91467 4.02908 4.11328 4.1513C4.31189 4.27352 4.52578 4.33464 4.75495 4.33464C5.21328 4.33464 5.56467 4.13969 5.80911 3.7498C6.05356 3.35991 6.06884 2.95902 5.85495 2.54714L4.91536 0.667969H6.7487L8.23828 3.64714C8.34523 3.86102 8.498 4.02908 8.69662 4.1513C8.89523 4.27352 9.10911 4.33464 9.33828 4.33464C9.79661 4.33464 10.148 4.13969 10.3924 3.7498C10.6369 3.35991 10.6522 2.95902 10.4383 2.54714L9.4987 0.667969H11.332L12.8216 3.64714C12.9286 3.86102 13.0813 4.02908 13.2799 4.1513C13.4786 4.27352 13.6924 4.33464 13.9216 4.33464C14.3799 4.33464 14.7313 4.13969 14.9758 3.7498C15.2202 3.35991 15.2355 2.95902 15.0216 2.54714L14.082 0.667969H16.832C17.3362 0.667969 17.7679 0.84733 18.1273 1.20605C18.4866 1.56477 18.666 1.99652 18.6654 2.5013V5.6638C18.6654 5.84714 18.589 5.99227 18.4362 6.09922C18.2834 6.20616 18.1154 6.23672 17.932 6.19088C17.4279 6.09922 16.9274 6.1258 16.4305 6.27064C15.9337 6.41547 15.487 6.6868 15.0904 7.08464L10.0258 12.1492C9.85773 12.3173 9.72786 12.5122 9.6362 12.7341C9.54453 12.9559 9.4987 13.1887 9.4987 13.4326V14.418C9.4987 14.6777 9.4107 14.8956 9.2347 15.0716C9.0587 15.2476 8.84114 15.3352 8.58203 15.3346H2.16536ZM11.332 15.3346V13.8221C11.332 13.6999 11.3549 13.5817 11.4008 13.4674C11.4466 13.3531 11.5154 13.2498 11.607 13.1576L16.3966 8.39089C16.5341 8.25339 16.6869 8.15408 16.8549 8.09297C17.023 8.03186 17.1911 8.0013 17.3591 8.0013C17.5424 8.0013 17.7181 8.03583 17.8862 8.10489C18.0543 8.17394 18.207 8.27691 18.3445 8.4138L19.1924 9.26172C19.3147 9.39922 19.4103 9.552 19.4794 9.72005C19.5484 9.88811 19.5826 10.0562 19.582 10.2242C19.5814 10.3923 19.5509 10.5643 19.4904 10.7403C19.4299 10.9163 19.3306 11.0727 19.1924 11.2096L14.4258 15.9763C14.3341 16.068 14.2311 16.1367 14.1169 16.1826C14.0026 16.2284 13.884 16.2513 13.7612 16.2513H12.2487C11.989 16.2513 11.7714 16.1636 11.596 15.9882C11.4206 15.8128 11.3326 15.595 11.332 15.3346ZM17.3591 11.118L18.207 10.2242L17.3591 9.3763L16.4883 10.2471L17.3591 11.118Z" fill="black"/>
</svg>
