<svg width="22" height="20" viewBox="0 0 22 20" fill="none" xmlns="http://www.w3.org/2000/svg">
<g clip-path="url(#clip0_57_26320)">
<g clip-path="url(#clip1_57_26320)">
<path opacity="0.4" d="M2.73438 10.8057V5.8224C2.73438 3.5224 4.60105 1.66406 6.90104 1.66406H15.2344C17.5344 1.66406 19.4011 3.5224 19.4011 5.8224V11.6391C19.4011 13.9307 17.5344 15.7891 15.2344 15.7891H13.9844C13.7261 15.7891 13.4761 15.9141 13.3177 16.1224L12.0677 17.7807C11.5177 18.5141 10.6177 18.5141 10.0677 17.7807L8.8177 16.1224C8.68437 15.9391 8.38438 15.7891 8.15104 15.7891H6.90104C4.60105 15.7891 2.73438 13.9307 2.73438 11.6391V10.8057Z" fill="#333548" fill-opacity="0.75"/>
<path d="M11.0677 10.0026C10.6011 10.0026 10.2344 9.6276 10.2344 9.16927C10.2344 8.71094 10.6094 8.33594 11.0677 8.33594C11.5261 8.33594 11.9011 8.71094 11.9011 9.16927C11.9011 9.6276 11.5344 10.0026 11.0677 10.0026Z" fill="#333548" fill-opacity="0.75"/>
<path d="M14.3997 10.0026C13.933 10.0026 13.5664 9.6276 13.5664 9.16927C13.5664 8.71094 13.9414 8.33594 14.3997 8.33594C14.858 8.33594 15.233 8.71094 15.233 9.16927C15.233 9.6276 14.8664 10.0026 14.3997 10.0026Z" fill="#333548" fill-opacity="0.75"/>
<path d="M7.73178 10.0026C7.26511 10.0026 6.89844 9.6276 6.89844 9.16927C6.89844 8.71094 7.27344 8.33594 7.73178 8.33594C8.19011 8.33594 8.56511 8.71094 8.56511 9.16927C8.56511 9.6276 8.19844 10.0026 7.73178 10.0026Z" fill="#333548" fill-opacity="0.75"/>
</g>
</g>
<defs>
<clipPath id="clip0_57_26320">
<rect width="21" height="20" fill="white" transform="translate(0.5)"/>
</clipPath>
<clipPath id="clip1_57_26320">
<rect width="21" height="20" fill="white" transform="translate(0.5)"/>
</clipPath>
</defs>
</svg>
