<svg width="46" height="46" viewBox="0 0 46 46" fill="none" xmlns="http://www.w3.org/2000/svg">
<rect x="0.75" y="0.75" width="44.1643" height="44.1643" rx="15.25" fill="#FDF8E5"/>
<rect x="0.75" y="0.75" width="44.1643" height="44.1643" rx="15.25" stroke="#E3E3E3" stroke-width="1.5"/>
<g clip-path="url(#clip0_57_28581)">
<g clip-path="url(#clip1_57_28581)">
<path opacity="0.4" d="M31.259 26.4362C30.8076 26.8768 30.5497 27.5109 30.6142 28.1879C30.7109 29.3486 31.7748 30.1976 32.9355 30.1976H34.9774V31.4764C34.9774 33.701 33.1612 35.5172 30.9366 35.5172H18.5994C16.3748 35.5172 14.5586 33.701 14.5586 31.4764V24.2439C14.5586 22.0193 16.3748 20.2031 18.5994 20.2031H30.9366C33.1612 20.2031 34.9774 22.0193 34.9774 24.2439V25.7914H32.8065C32.2047 25.7914 31.6566 26.0278 31.259 26.4362Z" fill="#3A643B"/>
<path d="M27.8308 16.117V20.2007H18.5994C16.3748 20.2007 14.5586 22.0169 14.5586 24.2415V20.2975C14.5586 19.0186 15.3431 17.8794 16.536 17.428L25.0689 14.204C26.4015 13.7097 27.8308 14.6876 27.8308 16.117Z" fill="#3A643B"/>
<path d="M36.1176 26.893V29.1069C36.1176 29.6979 35.6447 30.1815 35.0429 30.203H32.9366C31.7759 30.203 30.712 29.354 30.6153 28.1934C30.5508 27.5163 30.8087 26.8823 31.2601 26.4417C31.6577 26.0333 32.2058 25.7969 32.8076 25.7969H35.0429C35.6447 25.8184 36.1176 26.302 36.1176 26.893Z" fill="#3A643B"/>
<path d="M26.9185 25.5769H19.3958C18.9552 25.5769 18.5898 25.2115 18.5898 24.7708C18.5898 24.3302 18.9552 23.9648 19.3958 23.9648H26.9185C27.3592 23.9648 27.7246 24.3302 27.7246 24.7708C27.7246 25.2115 27.3592 25.5769 26.9185 25.5769Z" fill="#3A643B"/>
</g>
</g>
<defs>
<clipPath id="clip0_57_28581">
<rect width="25.7921" height="25.7921" fill="white" transform="translate(11.873 11.875)"/>
</clipPath>
<clipPath id="clip1_57_28581">
<rect width="25.7921" height="25.7921" fill="white" transform="translate(11.873 11.875)"/>
</clipPath>
</defs>
</svg>
