<svg width="20" height="21" viewBox="0 0 20 21" fill="none" xmlns="http://www.w3.org/2000/svg">
<g clip-path="url(#clip0_57_28515)">
<g clip-path="url(#clip1_57_28515)">
<path opacity="0.4" d="M9.17435 17.1807C13.3211 17.1807 16.6827 13.8191 16.6827 9.6724C16.6827 5.52566 13.3211 2.16406 9.17435 2.16406C5.02761 2.16406 1.66602 5.52566 1.66602 9.6724C1.66602 13.8191 5.02761 17.1807 9.17435 17.1807Z" fill="#28643B"/>
<path d="M18.3248 16.2917C18.0498 15.7833 17.4664 15.5 16.6831 15.5C16.0914 15.5 15.5831 15.7417 15.2831 16.1583C14.9831 16.575 14.9164 17.1333 15.0998 17.6917C15.4581 18.775 16.0831 19.0167 16.4248 19.0583C16.4748 19.0667 16.5248 19.0667 16.5831 19.0667C16.9498 19.0667 17.5164 18.9083 18.0664 18.0833C18.5081 17.4417 18.5914 16.8 18.3248 16.2917Z" fill="#28643B"/>
</g>
</g>
<defs>
<clipPath id="clip0_57_28515">
<rect width="20" height="20" fill="white" transform="translate(0 0.5)"/>
</clipPath>
<clipPath id="clip1_57_28515">
<rect width="20" height="20" fill="white" transform="translate(0 0.5)"/>
</clipPath>
</defs>
</svg>
