<svg width="20" height="21" viewBox="0 0 20 21" fill="none" xmlns="http://www.w3.org/2000/svg">
<path opacity="0.4" d="M13.493 2.16406H6.50964C3.47631 2.16406 1.66797 3.9724 1.66797 7.00573V13.9807C1.66797 17.0224 3.47631 18.8307 6.50964 18.8307H13.4847C16.518 18.8307 18.3263 17.0224 18.3263 13.9891V7.00573C18.3347 3.9724 16.5263 2.16406 13.493 2.16406Z" fill="#3A643B"/>
<path opacity="0.97" d="M9.99792 9.08958C10.6009 9.08958 11.0896 8.60083 11.0896 7.99792C11.0896 7.39501 10.6009 6.90625 9.99792 6.90625C9.39501 6.90625 8.90625 7.39501 8.90625 7.99792C8.90625 8.60083 9.39501 9.08958 9.99792 9.08958Z" fill="#3A643B"/>
<path opacity="0.97" d="M6.92369 11.9062C6.32369 11.9062 5.83203 12.3979 5.83203 12.9979C5.83203 13.5979 6.32369 14.0896 6.92369 14.0896C7.52369 14.0896 8.01536 13.5979 8.01536 12.9979C8.01536 12.3979 7.52369 11.9062 6.92369 11.9062Z" fill="#3A643B"/>
<path opacity="0.97" d="M13.076 11.9062C12.476 11.9062 11.9844 12.3979 11.9844 12.9979C11.9844 13.5979 12.476 14.0896 13.076 14.0896C13.676 14.0896 14.1677 13.5979 14.1677 12.9979C14.1677 12.3979 13.676 11.9062 13.076 11.9062Z" fill="#3A643B"/>
</svg>
