<svg width="24" height="24" viewBox="0 0 24 24" fill="none" xmlns="http://www.w3.org/2000/svg">
<path opacity="0.4" d="M16.8286 7.77C16.7619 7.76 16.695 7.76 16.6282 7.77C15.1486 7.72 13.9746 6.45 13.9746 4.89C13.9746 3.3 15.2059 2 16.7332 2C18.251 2 19.4919 3.29 19.4919 4.89C19.4823 6.45 18.3082 7.72 16.8286 7.77Z" fill="#474856" fill-opacity="0.75"/>
<path opacity="0.4" d="M19.9371 14.7004C18.868 15.4504 17.3693 15.7304 15.9853 15.5404C16.348 14.7204 16.5389 13.8104 16.5484 12.8504C16.5484 11.8504 16.3384 10.9004 15.9375 10.0704C17.3502 9.8704 18.8489 10.1504 19.9275 10.9004C21.4357 11.9404 21.4357 13.6504 19.9371 14.7004Z" fill="#474856" fill-opacity="0.75"/>
<path opacity="0.4" d="M6.24326 7.77C6.31008 7.76 6.3769 7.76 6.44371 7.77C7.92326 7.72 9.09735 6.45 9.09735 4.89C9.09735 3.3 7.86599 2 6.33871 2C4.82099 2 3.58008 3.29 3.58008 4.89C3.58962 6.45 4.76371 7.72 6.24326 7.77Z" fill="#474856" fill-opacity="0.75"/>
<path opacity="0.4" d="M6.34795 12.8505C6.34795 13.8206 6.54841 14.7406 6.91114 15.5705C5.56523 15.7206 4.16205 15.4206 3.13114 14.7105C1.62295 13.6606 1.62295 11.9505 3.13114 10.9006C4.1525 10.1806 5.59386 9.89059 6.94932 10.0506C6.55795 10.8906 6.34795 11.8406 6.34795 12.8505Z" fill="#474856" fill-opacity="0.75"/>
<path d="M11.6636 15.8699C11.5872 15.86 11.5014 15.86 11.4154 15.8699C9.65904 15.8099 8.25586 14.3 8.25586 12.44C8.25586 10.54 9.71631 9 11.5396 9C13.3532 9 14.8232 10.54 14.8232 12.44C14.8232 14.3 13.4296 15.8099 11.6636 15.8699Z" fill="#474856" fill-opacity="0.75"/>
<path d="M8.55954 17.9426C7.11817 18.9526 7.11817 20.6126 8.55954 21.6126C10.2014 22.7626 12.8931 22.7626 14.5349 21.6126C15.9764 20.6026 15.9764 18.9426 14.5349 17.9426C12.9027 16.7926 10.2109 16.7926 8.55954 17.9426Z" fill="#474856" fill-opacity="0.75"/>
</svg>
